<svg height="512pt" viewBox="0 0 512 512" width="512pt" xmlns="http://www.w3.org/2000/svg"><path d="m497 289.199219h-17.132812v-77.320313l6.527343 6.527344c5.855469 5.855469 15.351563 5.859375 21.210938 0 5.859375-5.855469 5.859375-15.355469 0-21.210938l-128.53125-128.535156c-5.859375-5.855468-15.355469-5.855468-21.214844 0l-128.53125 128.535156c-5.859375 5.855469-5.859375 15.355469 0 21.210938 5.855469 5.859375 15.355469 5.859375 21.210937 0l6.527344-6.523438v77.316407h-242.066406c-8.285156 0-15 6.71875-15 15v192.800781c0 8.285156 6.714844 15 15 15h482c8.285156 0 15-6.714844 15-15v-192.800781c0-8.28125-6.714844-15-15-15zm-209.933594-107.320313 81.402344-81.398437 81.398438 81.398437v107.320313h-34.265626v-65.332031c0-8.285157-6.71875-15-15-15h-64.269531c-8.28125 0-15 6.714843-15 15v65.332031h-34.265625zm64.265625 107.320313v-50.332031h34.269531v50.332031zm-154.597656 30c-15.699219 9.523437-30.042969 21.070312-42.664063 34.269531h-124.070312v-34.269531zm-84.613281 98.535156h-82.121094v-34.265625h100.238281c-7.050781 10.769531-13.132812 22.234375-18.117187 34.265625zm-82.121094 30h72.316406c-2.710937 11.105469-4.53125 22.550781-5.371094 34.265625h-66.945312zm274.183594-128.535156h177.816406v34.269531h-177.800781c-74.609375 0-135.335938 56.632812-142.757813 128.53125h-34.417968c7.632812-91.046875 84.171874-162.800781 177.160156-162.800781zm.015625 64.269531h177.800781v34.265625h-177.800781c-38.578125 0-70.789063 27.707031-77.824219 64.265625h-34.730469c7.246094-55.253906 54.535157-98.53125 112.554688-98.53125zm177.800781 98.53125h-224.730469c6.359375-19.855469 24.992188-34.265625 46.929688-34.265625h177.800781zm0 0"/><path d="m47.132812 142.46875h112.46875c25.988282 0 47.132813-21.144531 47.132813-47.132812 0-25.804688-20.847656-47.136719-47.132813-47.136719h-1.503906c-3.4375-27.140625-26.671875-48.199219-54.730468-48.199219-28.058594 0-51.292969 21.058594-54.730469 48.199219h-1.503907c-25.804687 0-47.132812 20.855469-47.132812 47.132812 0 25.992188 21.144531 47.136719 47.132812 47.136719zm0-64.269531h16.066407c8.285156 0 15-6.714844 15-15v-8.035157c0-13.875 11.289062-25.164062 25.167969-25.164062 13.875 0 25.167968 11.289062 25.167968 25.167969v8.03125c0 8.285156 6.714844 15 15 15h16.066406c9.457032 0 17.132813 7.65625 17.132813 17.132812 0 9.449219-7.6875 17.132813-17.132813 17.132813h-112.46875c-9.445312 0-17.132812-7.683594-17.132812-17.132813 0-9.4375 7.636719-17.132812 17.132812-17.132812zm0 0"/></svg>